<svg xmlns="http://www.w3.org/2000/svg" xml:space="preserve" viewBox="0 0 364.4 364.4">
  <path fill="#ff8e00" d="M-.5.4h364.7v364.7H-.5z"/>
  <path fill="#fff" d="M283.8 85.2c-2.7-3.3-6.8-5.2-11.4-5-4.4.1-8.3 1.8-10.8 3-6.9 3.3-13.6 8-20.4 14.3-7.3 6.8-14.6 13.6-21.8 20.3-5.5 5.2-11 10.3-16.6 15.5-12.5-2.8-24.9-5.6-37.4-8.4l-67.1-15.2c-2.6-.6-5.4.1-7.3 2l-1.2 1.1c-2.7 2.5-5.3 4.9-7.9 7.4-1.9 1.9-2.8 4.4-2.5 6.8.4 2.5 2 4.6 4.4 5.9l77 39.8-.6.6c-10.4 9.7-20.8 19.5-31.2 29.2-10.8-3.3-21.5-6.6-32.3-10-3.2-1-6.7-.1-9.1 2.3-1.6 1.6-3.3 3.2-5 4.8-1.1 1-2.1 2-3.2 3-1.9 1.9-2.9 4.3-2.6 6.8.3 2.5 1.8 4.8 4.2 6.2l6 3.6c10.5 6.2 20.9 12.5 31.4 18.8.4.2.7.6.9 1 4.8 9.4 9.6 18.7 14.4 28.1l5.3 10.4c1.4 2.8 3.5 4.5 6 5 2.4.4 4.9-.5 7.1-2.5 1-.9 2-1.8 2.9-2.8 1.7-1.6 3.4-3.2 5.2-4.8 2.5-2.2 3.5-5.6 2.8-8.7-1.1-4.7-2.3-9.4-3.4-14.1l-4.5-18.9c10.5-9.8 21-19.6 31.5-29.5l.3-.3 22.9 52.3 11.8 27.1c1.1 2.5 3.2 4.3 5.6 4.8 2.4.6 5-.2 7-2.1 2.5-2.2 4.9-4.5 7.3-6.8l1.9-1.8c1.9-1.8 2.7-4.3 2.3-6.9l-6-37.8-5.6-35.6-5.1-32.7c11.8-11.1 23.6-22.2 35.5-33.2 5.7-5.3 10.3-10.4 14.2-15.7 2.9-4 6.1-8.8 7.6-14.9 1.3-4.4.3-9-2.5-12.4z"/>
</svg>
